<mxfile host="app.diagrams.net" modified="2023-08-28T10:39:23.609Z" agent="Mozilla/5.0 (Windows NT 10.0; Win64; x64) AppleWebKit/537.36 (KHTML, like Gecko) Chrome/116.0.0.0 Safari/537.36" etag="C6C-fclqk4VGC7D0Si3L" version="21.6.9" type="github">
  <diagram name="Page-1" id="5LYYhQt8xWZWNLnVlUwW">
    <mxGraphModel dx="1434" dy="758" grid="1" gridSize="10" guides="1" tooltips="1" connect="1" arrows="1" fold="1" page="1" pageScale="1" pageWidth="827" pageHeight="1169" math="0" shadow="0">
      <root>
        <mxCell id="0" />
        <mxCell id="1" parent="0" />
        <mxCell id="AARzIBOQnp742r6_KSib-1" value="8 Primitive Data Types" style="rounded=1;whiteSpace=wrap;html=1;" parent="1" vertex="1">
          <mxGeometry x="150" y="230" width="100" height="50" as="geometry" />
        </mxCell>
        <mxCell id="Za6ppW3K4hta62l6MQVg-1" value="3 Reference Data Types" style="rounded=1;whiteSpace=wrap;html=1;" vertex="1" parent="1">
          <mxGeometry x="150" y="535" width="100" height="50" as="geometry" />
        </mxCell>
        <mxCell id="Za6ppW3K4hta62l6MQVg-7" value="6 Numeric type" style="rounded=1;whiteSpace=wrap;html=1;" vertex="1" parent="1">
          <mxGeometry x="300" y="150" width="100" height="50" as="geometry" />
        </mxCell>
        <mxCell id="Za6ppW3K4hta62l6MQVg-9" value="1 Character type" style="rounded=1;whiteSpace=wrap;html=1;" vertex="1" parent="1">
          <mxGeometry x="300" y="240" width="100" height="50" as="geometry" />
        </mxCell>
        <mxCell id="Za6ppW3K4hta62l6MQVg-13" value="1 Boolean type" style="rounded=1;whiteSpace=wrap;html=1;" vertex="1" parent="1">
          <mxGeometry x="300" y="330" width="100" height="50" as="geometry" />
        </mxCell>
        <mxCell id="Za6ppW3K4hta62l6MQVg-14" value="4 Integer type" style="rounded=1;whiteSpace=wrap;html=1;" vertex="1" parent="1">
          <mxGeometry x="460" y="60" width="100" height="50" as="geometry" />
        </mxCell>
        <mxCell id="Za6ppW3K4hta62l6MQVg-15" value="2 Floating-point type" style="rounded=1;whiteSpace=wrap;html=1;" vertex="1" parent="1">
          <mxGeometry x="460" y="150" width="100" height="50" as="geometry" />
        </mxCell>
        <mxCell id="Za6ppW3K4hta62l6MQVg-16" value="&lt;div&gt;byte: 8-bit signed integer&lt;/div&gt;&lt;div&gt;short: 16-bit signed integer&lt;/div&gt;&lt;div&gt;int: 32-bit signed integer&lt;/div&gt;&lt;div&gt;long: 64-bit signed integer&lt;/div&gt;" style="rounded=1;whiteSpace=wrap;html=1;align=left;" vertex="1" parent="1">
          <mxGeometry x="610" y="40" width="150" height="70" as="geometry" />
        </mxCell>
        <mxCell id="Za6ppW3K4hta62l6MQVg-17" value="&lt;div&gt;float: 32-bit floating-point number&lt;/div&gt;&lt;div&gt;double: 64-bit floating-point number&lt;/div&gt;" style="rounded=1;whiteSpace=wrap;html=1;align=left;" vertex="1" parent="1">
          <mxGeometry x="610" y="140" width="200" height="70" as="geometry" />
        </mxCell>
        <mxCell id="Za6ppW3K4hta62l6MQVg-20" value="Java Data Type" style="rounded=1;whiteSpace=wrap;html=1;" vertex="1" parent="1">
          <mxGeometry x="20" y="390" width="100" height="50" as="geometry" />
        </mxCell>
        <mxCell id="Za6ppW3K4hta62l6MQVg-21" value="" style="endArrow=classic;html=1;rounded=0;exitX=0.75;exitY=0;exitDx=0;exitDy=0;" edge="1" parent="1" source="Za6ppW3K4hta62l6MQVg-20" target="AARzIBOQnp742r6_KSib-1">
          <mxGeometry width="50" height="50" relative="1" as="geometry">
            <mxPoint x="390" y="550" as="sourcePoint" />
            <mxPoint x="440" y="500" as="targetPoint" />
          </mxGeometry>
        </mxCell>
        <mxCell id="Za6ppW3K4hta62l6MQVg-22" value="" style="endArrow=classic;html=1;rounded=0;entryX=0.25;entryY=0;entryDx=0;entryDy=0;" edge="1" parent="1" source="Za6ppW3K4hta62l6MQVg-20" target="Za6ppW3K4hta62l6MQVg-1">
          <mxGeometry width="50" height="50" relative="1" as="geometry">
            <mxPoint x="390" y="550" as="sourcePoint" />
            <mxPoint x="440" y="500" as="targetPoint" />
          </mxGeometry>
        </mxCell>
        <mxCell id="Za6ppW3K4hta62l6MQVg-23" value="" style="endArrow=classic;html=1;rounded=0;entryX=0;entryY=0.75;entryDx=0;entryDy=0;exitX=0.91;exitY=0;exitDx=0;exitDy=0;exitPerimeter=0;" edge="1" parent="1" source="AARzIBOQnp742r6_KSib-1" target="Za6ppW3K4hta62l6MQVg-7">
          <mxGeometry width="50" height="50" relative="1" as="geometry">
            <mxPoint x="550" y="480" as="sourcePoint" />
            <mxPoint x="600" y="430" as="targetPoint" />
          </mxGeometry>
        </mxCell>
        <mxCell id="Za6ppW3K4hta62l6MQVg-24" value="" style="endArrow=classic;html=1;rounded=0;entryX=0;entryY=0.5;entryDx=0;entryDy=0;exitX=1;exitY=0.75;exitDx=0;exitDy=0;" edge="1" parent="1" source="AARzIBOQnp742r6_KSib-1" target="Za6ppW3K4hta62l6MQVg-9">
          <mxGeometry width="50" height="50" relative="1" as="geometry">
            <mxPoint x="560" y="490" as="sourcePoint" />
            <mxPoint x="610" y="440" as="targetPoint" />
          </mxGeometry>
        </mxCell>
        <mxCell id="Za6ppW3K4hta62l6MQVg-25" value="" style="endArrow=classic;html=1;rounded=0;entryX=0;entryY=0.5;entryDx=0;entryDy=0;exitX=0.75;exitY=1;exitDx=0;exitDy=0;" edge="1" parent="1" source="AARzIBOQnp742r6_KSib-1" target="Za6ppW3K4hta62l6MQVg-13">
          <mxGeometry width="50" height="50" relative="1" as="geometry">
            <mxPoint x="570" y="500" as="sourcePoint" />
            <mxPoint x="620" y="450" as="targetPoint" />
          </mxGeometry>
        </mxCell>
        <mxCell id="Za6ppW3K4hta62l6MQVg-26" value="" style="endArrow=classic;html=1;rounded=0;entryX=0;entryY=0.5;entryDx=0;entryDy=0;exitX=0.83;exitY=0.02;exitDx=0;exitDy=0;exitPerimeter=0;" edge="1" parent="1" source="Za6ppW3K4hta62l6MQVg-7" target="Za6ppW3K4hta62l6MQVg-14">
          <mxGeometry width="50" height="50" relative="1" as="geometry">
            <mxPoint x="580" y="510" as="sourcePoint" />
            <mxPoint x="630" y="460" as="targetPoint" />
          </mxGeometry>
        </mxCell>
        <mxCell id="Za6ppW3K4hta62l6MQVg-27" value="" style="endArrow=classic;html=1;rounded=0;entryX=0;entryY=0.5;entryDx=0;entryDy=0;exitX=1;exitY=0.5;exitDx=0;exitDy=0;" edge="1" parent="1" source="Za6ppW3K4hta62l6MQVg-7" target="Za6ppW3K4hta62l6MQVg-15">
          <mxGeometry width="50" height="50" relative="1" as="geometry">
            <mxPoint x="590" y="520" as="sourcePoint" />
            <mxPoint x="640" y="470" as="targetPoint" />
          </mxGeometry>
        </mxCell>
        <mxCell id="Za6ppW3K4hta62l6MQVg-28" value="" style="endArrow=classic;html=1;rounded=0;entryX=0;entryY=0.5;entryDx=0;entryDy=0;exitX=1;exitY=0.5;exitDx=0;exitDy=0;" edge="1" parent="1" source="Za6ppW3K4hta62l6MQVg-14" target="Za6ppW3K4hta62l6MQVg-16">
          <mxGeometry width="50" height="50" relative="1" as="geometry">
            <mxPoint x="600" y="530" as="sourcePoint" />
            <mxPoint x="650" y="480" as="targetPoint" />
          </mxGeometry>
        </mxCell>
        <mxCell id="Za6ppW3K4hta62l6MQVg-29" value="" style="endArrow=classic;html=1;rounded=0;entryX=0;entryY=0.5;entryDx=0;entryDy=0;exitX=1;exitY=0.5;exitDx=0;exitDy=0;" edge="1" parent="1" source="Za6ppW3K4hta62l6MQVg-15" target="Za6ppW3K4hta62l6MQVg-17">
          <mxGeometry width="50" height="50" relative="1" as="geometry">
            <mxPoint x="610" y="540" as="sourcePoint" />
            <mxPoint x="660" y="490" as="targetPoint" />
          </mxGeometry>
        </mxCell>
        <mxCell id="Za6ppW3K4hta62l6MQVg-30" value="" style="endArrow=classic;html=1;rounded=0;exitX=1;exitY=0.5;exitDx=0;exitDy=0;" edge="1" parent="1" source="Za6ppW3K4hta62l6MQVg-9" target="Za6ppW3K4hta62l6MQVg-32">
          <mxGeometry width="50" height="50" relative="1" as="geometry">
            <mxPoint x="620" y="550" as="sourcePoint" />
            <mxPoint x="670" y="500" as="targetPoint" />
          </mxGeometry>
        </mxCell>
        <mxCell id="Za6ppW3K4hta62l6MQVg-32" value="char: 16-bit Unicode character" style="rounded=1;whiteSpace=wrap;html=1;align=center;" vertex="1" parent="1">
          <mxGeometry x="460" y="240" width="170" height="50" as="geometry" />
        </mxCell>
        <mxCell id="Za6ppW3K4hta62l6MQVg-33" value="boolean: 8-bit Represents a true or false value" style="rounded=1;whiteSpace=wrap;html=1;" vertex="1" parent="1">
          <mxGeometry x="460" y="330" width="250" height="50" as="geometry" />
        </mxCell>
        <mxCell id="Za6ppW3K4hta62l6MQVg-34" value="" style="endArrow=classic;html=1;rounded=0;exitX=1;exitY=0.5;exitDx=0;exitDy=0;" edge="1" parent="1" source="Za6ppW3K4hta62l6MQVg-13" target="Za6ppW3K4hta62l6MQVg-33">
          <mxGeometry width="50" height="50" relative="1" as="geometry">
            <mxPoint x="630" y="560" as="sourcePoint" />
            <mxPoint x="680" y="510" as="targetPoint" />
          </mxGeometry>
        </mxCell>
        <mxCell id="Za6ppW3K4hta62l6MQVg-35" value="" style="endArrow=classic;html=1;rounded=0;entryX=0;entryY=0.5;entryDx=0;entryDy=0;exitX=0.75;exitY=0;exitDx=0;exitDy=0;" edge="1" parent="1" source="Za6ppW3K4hta62l6MQVg-1" target="Za6ppW3K4hta62l6MQVg-40">
          <mxGeometry width="50" height="50" relative="1" as="geometry">
            <mxPoint x="640" y="570" as="sourcePoint" />
            <mxPoint x="690" y="520" as="targetPoint" />
          </mxGeometry>
        </mxCell>
        <mxCell id="Za6ppW3K4hta62l6MQVg-36" value="" style="endArrow=classic;html=1;rounded=0;entryX=0;entryY=0.5;entryDx=0;entryDy=0;exitX=1;exitY=0.5;exitDx=0;exitDy=0;" edge="1" parent="1" source="Za6ppW3K4hta62l6MQVg-1" target="Za6ppW3K4hta62l6MQVg-42">
          <mxGeometry width="50" height="50" relative="1" as="geometry">
            <mxPoint x="650" y="580" as="sourcePoint" />
            <mxPoint x="700" y="530" as="targetPoint" />
          </mxGeometry>
        </mxCell>
        <mxCell id="Za6ppW3K4hta62l6MQVg-37" value="" style="endArrow=classic;html=1;rounded=0;entryX=0;entryY=0.5;entryDx=0;entryDy=0;exitX=0.9;exitY=1;exitDx=0;exitDy=0;exitPerimeter=0;" edge="1" parent="1" source="Za6ppW3K4hta62l6MQVg-1" target="Za6ppW3K4hta62l6MQVg-41">
          <mxGeometry width="50" height="50" relative="1" as="geometry">
            <mxPoint x="660" y="590" as="sourcePoint" />
            <mxPoint x="710" y="540" as="targetPoint" />
          </mxGeometry>
        </mxCell>
        <mxCell id="Za6ppW3K4hta62l6MQVg-40" value="class" style="rounded=1;whiteSpace=wrap;html=1;" vertex="1" parent="1">
          <mxGeometry x="300" y="430" width="100" height="50" as="geometry" />
        </mxCell>
        <mxCell id="Za6ppW3K4hta62l6MQVg-41" value="arrays" style="rounded=1;whiteSpace=wrap;html=1;" vertex="1" parent="1">
          <mxGeometry x="300" y="585" width="100" height="50" as="geometry" />
        </mxCell>
        <mxCell id="Za6ppW3K4hta62l6MQVg-42" value="interface" style="rounded=1;whiteSpace=wrap;html=1;" vertex="1" parent="1">
          <mxGeometry x="300" y="510" width="100" height="50" as="geometry" />
        </mxCell>
      </root>
    </mxGraphModel>
  </diagram>
</mxfile>
